<?xml version="1.0" encoding="UTF-8"?>
<svg xmlns="http://www.w3.org/2000/svg" xmlns:xlink="http://www.w3.org/1999/xlink" width="960px" height="1421px" font-family="'Inter', -apple-system, BlinkMacSystemFont, 'Segoe UI', sans-serif" font-size="16px">
<defs>
<style>
text { white-space: pre; }
.cursor { animation: blink 1.1s step-end infinite; }
@keyframes blink { 50% { opacity: 0; } }
.rain { animation-name: fall; animation-timing-function: linear; animation-iteration-count: infinite; fill: #f4f4f5; opacity: 0; }
@keyframes fall {
  0%   { transform: translateY(-120%); opacity: 0; }
  10%  { opacity: 0.35; }
  90%  { opacity: 0.25; }
  100% { transform: translateY(120%); opacity: 0; }
}
.glitch { animation: glitch 3s steps(1) 1; }
@keyframes glitch {
  0%   { transform: translate(0); }
  5%   { transform: translate(-2px, 1px); }
  10%  { transform: translate(2px, -1px); }
  15%  { transform: translate(-1px, 0); }
  20%  { transform: translate(0); }
  100% { transform: translate(0); }
}
.gfx { animation: glitchfx 11s steps(1) infinite; }
@keyframes glitchfx {
  0%, 38% { transform: translate(0,0) skewX(0); }
  39%     { transform: translate(-3px,1px) skewX(-2deg); }
  41%     { transform: translate(4px,-2px) skewX(3deg); }
  43%     { transform: translate(-2px,2px) skewX(-1deg); }
  45%     { transform: translate(0,0) skewX(0); }
  68%     { transform: translate(0,0) skewX(0); }
  69%     { transform: translate(3px,-1px) skewX(2deg); }
  71%     { transform: translate(-4px,1px) skewX(-3deg); }
  73%     { transform: translate(0,0) skewX(0); }
  100%    { transform: translate(0,0) skewX(0); }
}
.chan { animation: chsplit 11s steps(1) infinite; }
@keyframes chsplit {
  0%, 38% { opacity: 0; }
  39%     { opacity: 0.9; }
  45%     { opacity: 0; }
  68%     { opacity: 0; }
  69%     { opacity: 0.9; }
  73%     { opacity: 0; }
  100%    { opacity: 0; }
}
.c0 { animation: drift0 31.4s ease-in-out infinite alternate; animation-delay: -15.8s; }
@keyframes drift0 { 0% { transform: translate(0,0); opacity: 0.5; } 45% { opacity: 0.85; } 100% { transform: translate(17.4px,10.3px); opacity: 0.5; } }
.c1 { animation: drift1 32.1s ease-in-out infinite alternate; animation-delay: -14.9s; }
@keyframes drift1 { 0% { transform: translate(0,0); opacity: 0.5; } 45% { opacity: 0.85; } 100% { transform: translate(11.5px,10.6px); opacity: 0.5; } }
.c2 { animation: drift2 33.6s ease-in-out infinite alternate; animation-delay: -7.5s; }
@keyframes drift2 { 0% { transform: translate(0,0); opacity: 0.5; } 45% { opacity: 0.85; } 100% { transform: translate(10.8px,9.5px); opacity: 0.5; } }
.c3 { animation: drift3 27.1s ease-in-out infinite alternate; animation-delay: -6.9s; }
@keyframes drift3 { 0% { transform: translate(0,0); opacity: 0.5; } 45% { opacity: 0.85; } 100% { transform: translate(15.5px,8.2px); opacity: 0.5; } }
.c4 { animation: drift4 37.8s ease-in-out infinite alternate; animation-delay: -1.3s; }
@keyframes drift4 { 0% { transform: translate(0,0); opacity: 0.5; } 45% { opacity: 0.85; } 100% { transform: translate(15.2px,11.1px); opacity: 0.5; } }
.c5 { animation: drift5 27.9s ease-in-out infinite alternate; animation-delay: -35.5s; }
@keyframes drift5 { 0% { transform: translate(0,0); opacity: 0.5; } 45% { opacity: 0.85; } 100% { transform: translate(14.2px,8.3px); opacity: 0.5; } }
.c6 { animation: drift6 28.3s ease-in-out infinite alternate; animation-delay: -27.3s; }
@keyframes drift6 { 0% { transform: translate(0,0); opacity: 0.5; } 45% { opacity: 0.85; } 100% { transform: translate(10.2px,10.3px); opacity: 0.5; } }
.c7 { animation: drift7 31.3s ease-in-out infinite alternate; animation-delay: -5.7s; }
@keyframes drift7 { 0% { transform: translate(0,0); opacity: 0.5; } 45% { opacity: 0.85; } 100% { transform: translate(14.2px,11.2px); opacity: 0.5; } }
.c8 { animation: drift8 32.0s ease-in-out infinite alternate; animation-delay: -12.2s; }
@keyframes drift8 { 0% { transform: translate(0,0); opacity: 0.5; } 45% { opacity: 0.85; } 100% { transform: translate(13.7px,9.4px); opacity: 0.5; } }
.c9 { animation: drift9 38.0s ease-in-out infinite alternate; animation-delay: -0.2s; }
@keyframes drift9 { 0% { transform: translate(0,0); opacity: 0.5; } 45% { opacity: 0.85; } 100% { transform: translate(16.7px,11.5px); opacity: 0.5; } }
.c10 { animation: drift10 29.8s ease-in-out infinite alternate; animation-delay: -27.7s; }
@keyframes drift10 { 0% { transform: translate(0,0); opacity: 0.5; } 45% { opacity: 0.85; } 100% { transform: translate(12.3px,8.4px); opacity: 0.5; } }
.c11 { animation: drift11 35.2s ease-in-out infinite alternate; animation-delay: -21.6s; }
@keyframes drift11 { 0% { transform: translate(0,0); opacity: 0.5; } 45% { opacity: 0.85; } 100% { transform: translate(16.8px,9.9px); opacity: 0.5; } }
.comet { opacity: 0; }
.comet-1 { animation: comet1 5s ease-in-out infinite 0s; }
@keyframes comet1 {
  0% { transform: translate(860px, 40px); opacity: 0; }
  5% { opacity: 0.9; }
  40% { opacity: 0.9; }
  50% { opacity: 0; }
  100% { transform: translate(420px, 1800px); opacity: 0; }
}
.comet-2 { animation: comet2 6s ease-in-out infinite 2s; }
@keyframes comet2 {
  0% { transform: translate(790px, 80px); opacity: 0; }
  5% { opacity: 0.8; }
  35% { opacity: 0.8; }
  45% { opacity: 0; }
  100% { transform: translate(350px, 1720px); opacity: 0; }
}
.comet-3 { animation: comet3 7s ease-in-out infinite 4s; }
@keyframes comet3 {
  0% { transform: translate(920px, 20px); opacity: 0; }
  4% { opacity: 0.7; }
  30% { opacity: 0.7; }
  40% { opacity: 0; }
  100% { transform: translate(500px, 1880px); opacity: 0; }
}

</style>
<linearGradient id="comet-trail" x1="0" y1="0" x2="0" y2="1">
  <stop offset="0" stop-color="#f4f4f5" stop-opacity="0"/>
  <stop offset="1" stop-color="#f4f4f5" stop-opacity="0.8"/>
</linearGradient>
</defs>
<rect width="100%" height="100%" fill="#050505" rx="12"/>

<!-- Barra de título de la ventana de terminal -->
<rect x="4" y="4" width="952" height="1413" fill="none" stroke="#f4f4f5" stroke-width="1" rx="10" opacity="0.35"/>
<circle cx="24" cy="24" r="5" fill="#52525b"/>
<circle cx="42" cy="24" r="5" fill="#52525b"/>
<circle cx="60" cy="24" r="5" fill="#52525b"/>
<text x="480" y="28" fill="#a1a1aa" font-size="13" text-anchor="middle" font-family="'Inter', -apple-system, BlinkMacSystemFont, 'Segoe UI', sans-serif">andres@arch — zsh</text>

<g id="constellations-bg">
<g class="c0"><g opacity="0.75"><circle cx="36.5" cy="124.7" r="1.2" fill="#f4f4f5" opacity="0.65"/><circle cx="151.0" cy="146.2" r="1.2" fill="#f4f4f5" opacity="0.65"/><circle cx="100.6" cy="155.5" r="1.2" fill="#f4f4f5" opacity="0.65"/><line x1="100.6" y1="155.5" x2="151.0" y2="146.2" stroke="#a1a1aa" stroke-width="0.5" opacity="0.35"/></g></g>
<g class="c1"><g opacity="0.75"><circle cx="697.6" cy="123.6" r="1.2" fill="#f4f4f5" opacity="0.65"/><circle cx="887.2" cy="117.6" r="1.2" fill="#f4f4f5" opacity="0.65"/><circle cx="702.3" cy="94.8" r="1.2" fill="#f4f4f5" opacity="0.65"/><circle cx="938.5" cy="118.6" r="1.2" fill="#f4f4f5" opacity="0.65"/><line x1="697.6" y1="123.6" x2="702.3" y2="94.8" stroke="#a1a1aa" stroke-width="0.5" opacity="0.35"/></g></g>
<g class="c2"><g opacity="0.75"><circle cx="661.9" cy="210.3" r="1.2" fill="#f4f4f5" opacity="0.65"/><circle cx="584.4" cy="173.3" r="1.2" fill="#f4f4f5" opacity="0.65"/><circle cx="565.1" cy="205.0" r="1.2" fill="#f4f4f5" opacity="0.65"/><circle cx="448.3" cy="218.1" r="1.2" fill="#f4f4f5" opacity="0.65"/><circle cx="524.3" cy="188.0" r="1.2" fill="#f4f4f5" opacity="0.65"/><line x1="661.9" y1="210.3" x2="584.4" y2="173.3" stroke="#a1a1aa" stroke-width="0.5" opacity="0.35"/></g></g>
<g class="c3"><g opacity="0.75"><circle cx="384.8" cy="428.0" r="1.2" fill="#f4f4f5" opacity="0.65"/><circle cx="387.7" cy="435.8" r="1.2" fill="#f4f4f5" opacity="0.65"/><circle cx="400.0" cy="434.1" r="1.2" fill="#f4f4f5" opacity="0.65"/><circle cx="400.8" cy="427.0" r="1.2" fill="#f4f4f5" opacity="0.65"/><circle cx="408.4" cy="422.5" r="1.2" fill="#f4f4f5" opacity="0.65"/><circle cx="414.4" cy="418.3" r="1.2" fill="#f4f4f5" opacity="0.65"/><circle cx="426.4" cy="418.4" r="1.2" fill="#f4f4f5" opacity="0.65"/><line x1="384.8" y1="428.0" x2="387.7" y2="435.8" stroke="#a1a1aa" stroke-width="0.5" opacity="0.35"/><line x1="387.7" y1="435.8" x2="400.0" y2="434.1" stroke="#a1a1aa" stroke-width="0.5" opacity="0.35"/><line x1="400.0" y1="434.1" x2="400.8" y2="427.0" stroke="#a1a1aa" stroke-width="0.5" opacity="0.35"/><line x1="400.8" y1="427.0" x2="384.8" y2="428.0" stroke="#a1a1aa" stroke-width="0.5" opacity="0.35"/><line x1="400.8" y1="427.0" x2="408.4" y2="422.5" stroke="#a1a1aa" stroke-width="0.5" opacity="0.35"/><line x1="408.4" y1="422.5" x2="414.4" y2="418.3" stroke="#a1a1aa" stroke-width="0.5" opacity="0.35"/><line x1="414.4" y1="418.3" x2="426.4" y2="418.4" stroke="#a1a1aa" stroke-width="0.5" opacity="0.35"/></g></g>
<g class="c4"><g opacity="0.75"><circle cx="95.6" cy="543.6" r="1.2" fill="#f4f4f5" opacity="0.65"/><circle cx="137.8" cy="551.9" r="1.2" fill="#f4f4f5" opacity="0.65"/><circle cx="104.3" cy="532.9" r="1.2" fill="#f4f4f5" opacity="0.65"/><circle cx="125.4" cy="538.1" r="1.2" fill="#f4f4f5" opacity="0.65"/><circle cx="123.0" cy="546.5" r="1.2" fill="#f4f4f5" opacity="0.65"/><circle cx="105.1" cy="526.8" r="1.2" fill="#f4f4f5" opacity="0.65"/><line x1="105.1" y1="526.8" x2="104.3" y2="532.9" stroke="#a1a1aa" stroke-width="0.5" opacity="0.35"/><line x1="104.3" y1="532.9" x2="123.0" y2="546.5" stroke="#a1a1aa" stroke-width="0.5" opacity="0.35"/><line x1="123.0" y1="546.5" x2="95.6" y2="543.6" stroke="#a1a1aa" stroke-width="0.5" opacity="0.35"/><line x1="95.6" y1="543.6" x2="125.4" y2="538.1" stroke="#a1a1aa" stroke-width="0.5" opacity="0.35"/><line x1="125.4" y1="538.1" x2="137.8" y2="551.9" stroke="#a1a1aa" stroke-width="0.5" opacity="0.35"/><line x1="104.3" y1="532.9" x2="125.4" y2="538.1" stroke="#a1a1aa" stroke-width="0.5" opacity="0.35"/></g></g>
<g class="c5"><g opacity="0.75"><circle cx="835.0" cy="768.8" r="1.2" fill="#f4f4f5" opacity="0.65"/><circle cx="826.7" cy="776.3" r="1.2" fill="#f4f4f5" opacity="0.65"/><circle cx="799.7" cy="792.3" r="1.2" fill="#f4f4f5" opacity="0.65"/><circle cx="832.7" cy="789.5" r="1.2" fill="#f4f4f5" opacity="0.65"/><circle cx="817.6" cy="764.0" r="1.2" fill="#f4f4f5" opacity="0.65"/><circle cx="842.1" cy="798.2" r="1.2" fill="#f4f4f5" opacity="0.65"/><line x1="832.7" y1="789.5" x2="817.6" y2="764.0" stroke="#a1a1aa" stroke-width="0.5" opacity="0.35"/><line x1="826.7" y1="776.3" x2="832.7" y2="789.5" stroke="#a1a1aa" stroke-width="0.5" opacity="0.35"/><line x1="826.7" y1="776.3" x2="842.1" y2="798.2" stroke="#a1a1aa" stroke-width="0.5" opacity="0.35"/><line x1="835.0" y1="768.8" x2="506.7" y2="776.3" stroke="#a1a1aa" stroke-width="0.5" opacity="0.35"/><line x1="826.7" y1="776.3" x2="799.7" y2="792.3" stroke="#a1a1aa" stroke-width="0.5" opacity="0.35"/></g></g>
<g class="c6"><g opacity="0.75"><circle cx="436.5" cy="1014.0" r="1.2" fill="#f4f4f5" opacity="0.65"/><circle cx="446.0" cy="990.1" r="1.2" fill="#f4f4f5" opacity="0.65"/><circle cx="429.4" cy="978.2" r="1.2" fill="#f4f4f5" opacity="0.65"/><circle cx="420.2" cy="991.7" r="1.2" fill="#f4f4f5" opacity="0.65"/><circle cx="428.0" cy="999.6" r="1.2" fill="#f4f4f5" opacity="0.65"/><line x1="429.4" y1="978.2" x2="436.5" y2="1014.0" stroke="#a1a1aa" stroke-width="0.5" opacity="0.35"/><line x1="446.0" y1="990.1" x2="420.2" y2="991.7" stroke="#a1a1aa" stroke-width="0.5" opacity="0.35"/><line x1="429.4" y1="978.2" x2="420.2" y2="991.7" stroke="#a1a1aa" stroke-width="0.5" opacity="0.35"/><line x1="446.0" y1="990.1" x2="436.5" y2="1014.0" stroke="#a1a1aa" stroke-width="0.5" opacity="0.35"/><line x1="436.5" y1="1014.0" x2="428.0" y2="999.6" stroke="#a1a1aa" stroke-width="0.5" opacity="0.35"/></g></g>
<g class="c7"><g opacity="0.75"><circle cx="92.3" cy="1152.7" r="1.2" fill="#f4f4f5" opacity="0.65"/><circle cx="110.3" cy="1125.3" r="1.2" fill="#f4f4f5" opacity="0.65"/><circle cx="116.1" cy="1136.2" r="1.2" fill="#f4f4f5" opacity="0.65"/><circle cx="88.1" cy="1139.1" r="1.2" fill="#f4f4f5" opacity="0.65"/><circle cx="90.8" cy="1124.8" r="1.2" fill="#f4f4f5" opacity="0.65"/><circle cx="78.4" cy="1142.7" r="1.2" fill="#f4f4f5" opacity="0.65"/><line x1="78.4" y1="1142.7" x2="92.3" y2="1152.7" stroke="#a1a1aa" stroke-width="0.5" opacity="0.35"/><line x1="92.3" y1="1152.7" x2="88.1" y2="1139.1" stroke="#a1a1aa" stroke-width="0.5" opacity="0.35"/><line x1="88.1" y1="1139.1" x2="110.3" y2="1125.3" stroke="#a1a1aa" stroke-width="0.5" opacity="0.35"/><line x1="110.3" y1="1125.3" x2="116.1" y2="1136.2" stroke="#a1a1aa" stroke-width="0.5" opacity="0.35"/><line x1="116.1" y1="1136.2" x2="90.8" y2="1124.8" stroke="#a1a1aa" stroke-width="0.5" opacity="0.35"/><line x1="90.8" y1="1124.8" x2="88.1" y2="1139.1" stroke="#a1a1aa" stroke-width="0.5" opacity="0.35"/><line x1="90.8" y1="1124.8" x2="78.4" y2="1142.7" stroke="#a1a1aa" stroke-width="0.5" opacity="0.35"/></g></g>
<g class="c8"><g opacity="0.75"><circle cx="695.2" cy="1206.4" r="1.2" fill="#f4f4f5" opacity="0.65"/><circle cx="798.3" cy="1225.7" r="1.2" fill="#f4f4f5" opacity="0.65"/><circle cx="752.9" cy="1234.1" r="1.2" fill="#f4f4f5" opacity="0.65"/><line x1="752.9" y1="1234.1" x2="798.3" y2="1225.7" stroke="#a1a1aa" stroke-width="0.5" opacity="0.35"/></g></g>
<g class="c9"><g opacity="0.75"><circle cx="371.2" cy="1345.7" r="1.2" fill="#f4f4f5" opacity="0.65"/><circle cx="560.8" cy="1339.7" r="1.2" fill="#f4f4f5" opacity="0.65"/><circle cx="375.9" cy="1316.9" r="1.2" fill="#f4f4f5" opacity="0.65"/><circle cx="612.1" cy="1340.7" r="1.2" fill="#f4f4f5" opacity="0.65"/><line x1="371.2" y1="1345.7" x2="375.9" y2="1316.9" stroke="#a1a1aa" stroke-width="0.5" opacity="0.35"/></g></g>
<g class="c10"><g opacity="0.75"><circle cx="386.9" cy="792.3" r="1.2" fill="#f4f4f5" opacity="0.65"/><circle cx="314.0" cy="757.4" r="1.2" fill="#f4f4f5" opacity="0.65"/><circle cx="295.8" cy="787.3" r="1.2" fill="#f4f4f5" opacity="0.65"/><circle cx="185.8" cy="799.6" r="1.2" fill="#f4f4f5" opacity="0.65"/><circle cx="257.4" cy="771.2" r="1.2" fill="#f4f4f5" opacity="0.65"/><line x1="386.9" y1="792.3" x2="314.0" y2="757.4" stroke="#a1a1aa" stroke-width="0.5" opacity="0.35"/></g></g>
<g class="c11"><g opacity="0.75"><circle cx="637.4" cy="427.7" r="1.2" fill="#f4f4f5" opacity="0.65"/><circle cx="639.8" cy="434.2" r="1.2" fill="#f4f4f5" opacity="0.65"/><circle cx="650.1" cy="432.8" r="1.2" fill="#f4f4f5" opacity="0.65"/><circle cx="650.8" cy="426.9" r="1.2" fill="#f4f4f5" opacity="0.65"/><circle cx="657.1" cy="423.1" r="1.2" fill="#f4f4f5" opacity="0.65"/><circle cx="662.1" cy="419.6" r="1.2" fill="#f4f4f5" opacity="0.65"/><circle cx="672.2" cy="419.7" r="1.2" fill="#f4f4f5" opacity="0.65"/><line x1="637.4" y1="427.7" x2="639.8" y2="434.2" stroke="#a1a1aa" stroke-width="0.5" opacity="0.35"/><line x1="639.8" y1="434.2" x2="650.1" y2="432.8" stroke="#a1a1aa" stroke-width="0.5" opacity="0.35"/><line x1="650.1" y1="432.8" x2="650.8" y2="426.9" stroke="#a1a1aa" stroke-width="0.5" opacity="0.35"/><line x1="650.8" y1="426.9" x2="637.4" y2="427.7" stroke="#a1a1aa" stroke-width="0.5" opacity="0.35"/><line x1="650.8" y1="426.9" x2="657.1" y2="423.1" stroke="#a1a1aa" stroke-width="0.5" opacity="0.35"/><line x1="657.1" y1="423.1" x2="662.1" y2="419.6" stroke="#a1a1aa" stroke-width="0.5" opacity="0.35"/><line x1="662.1" y1="419.6" x2="672.2" y2="419.7" stroke="#a1a1aa" stroke-width="0.5" opacity="0.35"/></g></g>
</g>

<g id="rain"><g class="rain" style="animation-duration:8.8s;animation-delay:-5.4s"><tspan x="341" y="24">ア</tspan><tspan x="341" y="48">$</tspan><tspan x="341" y="72">イ</tspan><tspan x="341" y="96">コ</tspan><tspan x="341" y="120">#</tspan><tspan x="341" y="144">1</tspan></g><g class="rain" style="animation-duration:6.8s;animation-delay:-8.7s"><tspan x="941" y="24">シ</tspan><tspan x="941" y="48">ア</tspan><tspan x="941" y="72">カ</tspan><tspan x="941" y="96">ア</tspan><tspan x="941" y="120">$</tspan><tspan x="941" y="144">シ</tspan><tspan x="941" y="168">1</tspan><tspan x="941" y="192">#</tspan><tspan x="941" y="216">イ</tspan><tspan x="941" y="240">カ</tspan><tspan x="941" y="264">*</tspan><tspan x="941" y="288">*</tspan></g><g class="rain" style="animation-duration:8.8s;animation-delay:-3.8s"><tspan x="606" y="24">1</tspan><tspan x="606" y="48">カ</tspan><tspan x="606" y="72">1</tspan><tspan x="606" y="96">$</tspan><tspan x="606" y="120">ウ</tspan><tspan x="606" y="144">ク</tspan><tspan x="606" y="168">シ</tspan><tspan x="606" y="192">ウ</tspan><tspan x="606" y="216">$</tspan><tspan x="606" y="240">イ</tspan><tspan x="606" y="264">#</tspan><tspan x="606" y="288">ク</tspan></g><g class="rain" style="animation-duration:8.2s;animation-delay:-7.4s"><tspan x="583" y="24">コ</tspan><tspan x="583" y="48">イ</tspan><tspan x="583" y="72">$</tspan><tspan x="583" y="96">=</tspan><tspan x="583" y="120">ア</tspan><tspan x="583" y="144">#</tspan><tspan x="583" y="168">1</tspan><tspan x="583" y="192">%</tspan><tspan x="583" y="216">オ</tspan></g><g class="rain" style="animation-duration:7.6s;animation-delay:-5.2s"><tspan x="518" y="24">ス</tspan><tspan x="518" y="48">#</tspan><tspan x="518" y="72">ス</tspan><tspan x="518" y="96">コ</tspan><tspan x="518" y="120">ク</tspan><tspan x="518" y="144">カ</tspan><tspan x="518" y="168">^</tspan><tspan x="518" y="192">エ</tspan><tspan x="518" y="216">=</tspan><tspan x="518" y="240">~</tspan><tspan x="518" y="264">カ</tspan></g><g class="rain" style="animation-duration:7.1s;animation-delay:-4.3s"><tspan x="93" y="24">-</tspan><tspan x="93" y="48">ス</tspan><tspan x="93" y="72">ク</tspan><tspan x="93" y="96">%</tspan><tspan x="93" y="120">ア</tspan><tspan x="93" y="144">イ</tspan><tspan x="93" y="168">ソ</tspan><tspan x="93" y="192">シ</tspan><tspan x="93" y="216">エ</tspan><tspan x="93" y="240">~</tspan><tspan x="93" y="264">ケ</tspan></g><g class="rain" style="animation-duration:8.7s;animation-delay:-5.2s"><tspan x="165" y="24">~</tspan><tspan x="165" y="48">$</tspan><tspan x="165" y="72">#</tspan><tspan x="165" y="96">^</tspan><tspan x="165" y="120">ケ</tspan><tspan x="165" y="144">ケ</tspan><tspan x="165" y="168">=</tspan></g><g class="rain" style="animation-duration:7.2s;animation-delay:-3.8s"><tspan x="368" y="24">ア</tspan><tspan x="368" y="48">ア</tspan><tspan x="368" y="72">キ</tspan><tspan x="368" y="96">セ</tspan><tspan x="368" y="120">=</tspan><tspan x="368" y="144">+</tspan><tspan x="368" y="168">ア</tspan><tspan x="368" y="192">1</tspan><tspan x="368" y="216">-</tspan><tspan x="368" y="240">=</tspan><tspan x="368" y="264">ク</tspan><tspan x="368" y="288">*</tspan><tspan x="368" y="312">#</tspan></g><g class="rain" style="animation-duration:8.2s;animation-delay:-6.4s"><tspan x="707" y="24">+</tspan><tspan x="707" y="48">コ</tspan><tspan x="707" y="72">0</tspan><tspan x="707" y="96">ス</tspan><tspan x="707" y="120">コ</tspan><tspan x="707" y="144">エ</tspan><tspan x="707" y="168">%</tspan><tspan x="707" y="192">イ</tspan><tspan x="707" y="216">セ</tspan><tspan x="707" y="240">1</tspan><tspan x="707" y="264">オ</tspan><tspan x="707" y="288">~</tspan></g><g class="rain" style="animation-duration:5.1s;animation-delay:-6.8s"><tspan x="304" y="24">セ</tspan><tspan x="304" y="48">ア</tspan><tspan x="304" y="72">エ</tspan><tspan x="304" y="96">ス</tspan><tspan x="304" y="120">サ</tspan><tspan x="304" y="144">$</tspan><tspan x="304" y="168">キ</tspan><tspan x="304" y="192">ウ</tspan><tspan x="304" y="216">シ</tspan><tspan x="304" y="240">$</tspan><tspan x="304" y="264">キ</tspan><tspan x="304" y="288">=</tspan></g><g class="rain" style="animation-duration:8.9s;animation-delay:-2.9s"><tspan x="435" y="24">カ</tspan><tspan x="435" y="48">ウ</tspan><tspan x="435" y="72">ア</tspan><tspan x="435" y="96">エ</tspan><tspan x="435" y="120">ウ</tspan><tspan x="435" y="144">カ</tspan><tspan x="435" y="168">+</tspan><tspan x="435" y="192">カ</tspan><tspan x="435" y="216">0</tspan><tspan x="435" y="240">セ</tspan><tspan x="435" y="264">#</tspan><tspan x="435" y="288">エ</tspan></g><g class="rain" style="animation-duration:5.8s;animation-delay:-7.7s"><tspan x="279" y="24">%</tspan><tspan x="279" y="48">#</tspan><tspan x="279" y="72">ケ</tspan><tspan x="279" y="96">ウ</tspan><tspan x="279" y="120">=</tspan><tspan x="279" y="144">ソ</tspan><tspan x="279" y="168">%</tspan><tspan x="279" y="192">*</tspan><tspan x="279" y="216">+</tspan><tspan x="279" y="240">-</tspan><tspan x="279" y="264">1</tspan></g><g class="rain" style="animation-duration:8.5s;animation-delay:-2.0s"><tspan x="477" y="24">サ</tspan><tspan x="477" y="48">サ</tspan><tspan x="477" y="72">サ</tspan><tspan x="477" y="96">イ</tspan><tspan x="477" y="120">セ</tspan><tspan x="477" y="144">*</tspan><tspan x="477" y="168">サ</tspan><tspan x="477" y="192">1</tspan><tspan x="477" y="216">オ</tspan><tspan x="477" y="240">ア</tspan><tspan x="477" y="264">オ</tspan><tspan x="477" y="288">ス</tspan></g><g class="rain" style="animation-duration:5.0s;animation-delay:-3.6s"><tspan x="176" y="24">0</tspan><tspan x="176" y="48">#</tspan><tspan x="176" y="72">ウ</tspan><tspan x="176" y="96">$</tspan><tspan x="176" y="120">イ</tspan><tspan x="176" y="144">コ</tspan><tspan x="176" y="168">%</tspan></g><g class="rain" style="animation-duration:4.8s;animation-delay:-7.1s"><tspan x="36" y="24">ウ</tspan><tspan x="36" y="48">*</tspan><tspan x="36" y="72">キ</tspan><tspan x="36" y="96">コ</tspan><tspan x="36" y="120">%</tspan><tspan x="36" y="144">コ</tspan><tspan x="36" y="168">セ</tspan><tspan x="36" y="192">イ</tspan><tspan x="36" y="216">イ</tspan><tspan x="36" y="240">セ</tspan><tspan x="36" y="264">ス</tspan><tspan x="36" y="288">セ</tspan></g><g class="rain" style="animation-duration:5.9s;animation-delay:-7.7s"><tspan x="505" y="24">-</tspan><tspan x="505" y="48">キ</tspan><tspan x="505" y="72">セ</tspan><tspan x="505" y="96">=</tspan><tspan x="505" y="120">エ</tspan><tspan x="505" y="144">ソ</tspan><tspan x="505" y="168">0</tspan><tspan x="505" y="192">オ</tspan><tspan x="505" y="216">ソ</tspan><tspan x="505" y="240">コ</tspan><tspan x="505" y="264">ウ</tspan></g><g class="rain" style="animation-duration:6.9s;animation-delay:-8.8s"><tspan x="716" y="24">*</tspan><tspan x="716" y="48">ア</tspan><tspan x="716" y="72">=</tspan><tspan x="716" y="96">キ</tspan><tspan x="716" y="120">ソ</tspan><tspan x="716" y="144">コ</tspan><tspan x="716" y="168">エ</tspan><tspan x="716" y="192">コ</tspan><tspan x="716" y="216">~</tspan><tspan x="716" y="240">カ</tspan></g><g class="rain" style="animation-duration:6.9s;animation-delay:-4.5s"><tspan x="555" y="24">%</tspan><tspan x="555" y="48">^</tspan><tspan x="555" y="72">^</tspan><tspan x="555" y="96">~</tspan><tspan x="555" y="120">オ</tspan><tspan x="555" y="144">^</tspan><tspan x="555" y="168">カ</tspan><tspan x="555" y="192">サ</tspan><tspan x="555" y="216">-</tspan></g></g>

<g transform="translate(20, 92)"><g id="orion-logo"><circle cx="159.5" cy="136.6" r="3.7" fill="#f4f4f5" opacity="0.93"/><circle cx="70.5" cy="272.7" r="3.9" fill="#f4f4f5" opacity="1.0"/><circle cx="96.2" cy="145.1" r="2.7" fill="#f4f4f5" opacity="0.56"/><circle cx="119.0" cy="209.8" r="2.6" fill="#f4f4f5" opacity="0.54"/><circle cx="128.7" cy="216.2" r="2.5" fill="#f4f4f5" opacity="0.48"/><circle cx="110.1" cy="196.8" r="2.2" fill="#f4f4f5" opacity="0.39"/><circle cx="143.4" cy="285.0" r="2.3" fill="#f4f4f5" opacity="0.43"/><circle cx="117.8" cy="115.0" r="1.5" fill="#f4f4f5" opacity="0.3"/><line x1="159.5" y1="136.6" x2="117.8" y2="115.0" stroke="#a1a1aa" stroke-width="1" opacity="0.6"/><line x1="159.5" y1="136.6" x2="96.2" y2="145.1" stroke="#a1a1aa" stroke-width="1" opacity="0.6"/><line x1="96.2" y1="145.1" x2="119.0" y2="209.8" stroke="#a1a1aa" stroke-width="1" opacity="0.6"/><line x1="119.0" y1="209.8" x2="110.1" y2="196.8" stroke="#a1a1aa" stroke-width="1" opacity="0.6"/><line x1="110.1" y1="196.8" x2="128.7" y2="216.2" stroke="#a1a1aa" stroke-width="1" opacity="0.6"/><line x1="128.7" y1="216.2" x2="159.5" y2="136.6" stroke="#a1a1aa" stroke-width="1" opacity="0.6"/><line x1="128.7" y1="216.2" x2="70.5" y2="272.7" stroke="#a1a1aa" stroke-width="1" opacity="0.6"/><line x1="110.1" y1="196.8" x2="143.4" y2="285.0" stroke="#a1a1aa" stroke-width="1" opacity="0.6"/><line x1="70.5" y1="272.7" x2="143.4" y2="285.0" stroke="#a1a1aa" stroke-width="1" opacity="0.6"/></g></g>
<text x="340" y="71" fill="#f4f4f5" font-size="16" font-family="'Inter', -apple-system, BlinkMacSystemFont, 'Segoe UI', sans-serif"><tspan x="340" y="71" class="glitch" fill="#f4f4f5">andres@arch</tspan><tspan class="cursor" fill="#71717a">▌</tspan><tspan fill="#a1a1aa"> ─────────────────────────────</tspan><tspan x="340" y="101" fill="#a1a1aa">.</tspan><tspan fill="#f4f4f5">OS</tspan><tspan fill="#a1a1aa">: </tspan><tspan fill="#f4f4f5">Arch Linux + Hyprland</tspan><tspan x="340" y="125" fill="#a1a1aa">.</tspan><tspan fill="#f4f4f5">WM</tspan><tspan fill="#a1a1aa">: </tspan><tspan fill="#f4f4f5">Hyprland (Wayland)</tspan><tspan x="340" y="149" fill="#a1a1aa">.</tspan><tspan fill="#f4f4f5">Shell</tspan><tspan fill="#a1a1aa">: </tspan><tspan fill="#f4f4f5">bash/zsh</tspan><tspan x="340" y="173" fill="#a1a1aa">.</tspan><tspan fill="#f4f4f5">Role</tspan><tspan fill="#a1a1aa">: </tspan><tspan fill="#f4f4f5">Systems Engineer — EAN, Bogotá</tspan><tspan x="340" y="197" fill="#a1a1aa">.</tspan><tspan fill="#f4f4f5">English</tspan><tspan fill="#a1a1aa">: </tspan><tspan fill="#f4f4f5">B2</tspan><tspan x="340" y="221" fill="#a1a1aa">.</tspan><tspan fill="#f4f4f5">Languages</tspan><tspan fill="#a1a1aa">: </tspan><tspan fill="#f4f4f5">Python · TypeScript · C++ · Bash</tspan><tspan x="340" y="245" fill="#a1a1aa">.</tspan><tspan fill="#f4f4f5">AI/ML</tspan><tspan fill="#a1a1aa">: </tspan><tspan fill="#f4f4f5">Whisper · CLIP · OCR · InsightFace</tspan><tspan x="340" y="269" fill="#a1a1aa">.</tspan><tspan fill="#f4f4f5">Backend</tspan><tspan fill="#a1a1aa">: </tspan><tspan fill="#f4f4f5">FastAPI · SQLAlchemy</tspan><tspan x="340" y="293" fill="#a1a1aa">.</tspan><tspan fill="#f4f4f5">Frontend</tspan><tspan fill="#a1a1aa">: </tspan><tspan fill="#f4f4f5">React · Vite · Tailwind</tspan><tspan x="340" y="317" fill="#a1a1aa">.</tspan><tspan fill="#f4f4f5">DevOps</tspan><tspan fill="#a1a1aa">: </tspan><tspan fill="#f4f4f5">Docker · systemd · GitHub Actions</tspan><tspan x="340" y="341" fill="#a1a1aa">.</tspan><tspan fill="#f4f4f5">Hardware</tspan><tspan fill="#a1a1aa">: </tspan><tspan fill="#f4f4f5">Arduino · uinput · Wine</tspan><tspan x="340" y="365" fill="#a1a1aa">.</tspan><tspan fill="#f4f4f5">Focus</tspan><tspan fill="#a1a1aa">: </tspan><tspan fill="#f4f4f5">Applied AI + cyberpunk aesthetics</tspan><tspan x="340" y="395" fill="#f4f4f5"> ─── GitHub Stats ───</tspan><tspan x="340" y="419" fill="#a1a1aa">.</tspan><tspan fill="#f4f4f5">Repos</tspan><tspan fill="#a1a1aa">:   23</tspan><tspan fill="#a1a1aa">   </tspan><tspan fill="#f4f4f5">Stars</tspan><tspan fill="#a1a1aa">:    0</tspan><tspan x="340" y="443" fill="#a1a1aa">.</tspan><tspan fill="#f4f4f5">Followers</tspan><tspan fill="#a1a1aa">:    0</tspan><tspan fill="#a1a1aa">   </tspan><tspan fill="#f4f4f5">Status</tspan><tspan fill="#71717a">: OPEN TO WORK</tspan></text>

<g id="projects">
<text x="40" y="557" fill="#f4f4f5" font-weight="bold">andres@arch</text><text x="145.6" y="557" fill="#a1a1aa" font-weight="bold">:~$ </text><text x="184.0" y="557" fill="#71717a" font-weight="bold"># ls ~/projects</text><g><g transform="translate(60, 565)"><svg xmlns="http://www.w3.org/2000/svg" width="22" height="22" viewBox="0 0 24 24"><path d="M1.125 0C.502 0 0 .502 0 1.125v21.75C0 23.498.502 24 1.125 24h21.75c.623 0 1.125-.502 1.125-1.125V1.125C24 .502 23.498 0 22.875 0zm17.363 9.75c.612 0 1.154.037 1.627.111a6.38 6.38 0 0 1 1.306.34v2.458a3.95 3.95 0 0 0-.643-.361 5.093 5.093 0 0 0-.717-.26 5.453 5.453 0 0 0-1.426-.2c-.3 0-.573.028-.819.086a2.1 2.1 0 0 0-.623.242c-.17.104-.3.229-.393.374a.888.888 0 0 0-.14.49c0 .196.053.373.156.529.104.156.252.304.443.444s.423.276.696.41c.273.135.582.274.926.416.47.197.892.407 1.266.628.374.222.695.473.963.753.268.279.472.598.614.957.142.359.214.776.214 1.253 0 .657-.125 1.21-.373 1.656a3.033 3.033 0 0 1-1.012 1.085 4.38 4.38 0 0 1-1.487.596c-.566.12-1.163.18-1.79.18a9.916 9.916 0 0 1-1.84-.164 5.544 5.544 0 0 1-1.512-.493v-2.63a5.033 5.033 0 0 0 3.237 1.2c.333 0 .624-.03.872-.09.249-.06.456-.144.623-.25.166-.108.29-.234.373-.38a1.023 1.023 0 0 0-.074-1.089 2.12 2.12 0 0 0-.537-.5 5.597 5.597 0 0 0-.807-.444 27.72 27.72 0 0 0-1.007-.436c-.918-.383-1.602-.852-2.053-1.405-.45-.553-.676-1.222-.676-2.005 0-.614.123-1.141.369-1.582.246-.441.58-.804 1.004-1.089a4.494 4.494 0 0 1 1.47-.629 7.536 7.536 0 0 1 1.77-.201zm-15.113.188h9.563v2.166H9.506v9.646H6.789v-9.646H3.375z" fill="#f4f4f5"/></svg></g><text x="90" y="581" fill="#71717a">▸ </text><text x="109.2" y="581" fill="#f4f4f5">cp2077-ui-react</text><text x="90" y="605" fill="#a1a1aa">Cyberpunk 2077 UI replica in React 19 + TypeScript + Vite: hub, character, cyberware, inventory</text><text x="90" y="629" fill="#a1a1aa">and stats</text><text x="90" y="653" fill="#52525b">→ https://github.com/AndresBlancoSierra/cp2077-ui-react</text></g><g><g transform="translate(60, 675)"><svg xmlns="http://www.w3.org/2000/svg" width="22" height="22" viewBox="0 0 24 24"><path d="M14.25.18l.9.2.73.26.59.3.45.32.34.34.25.34.16.33.1.3.04.26.02.2-.01.13V8.5l-.05.63-.13.55-.21.46-.26.38-.3.31-.33.25-.35.19-.35.14-.33.1-.3.07-.26.04-.21.02H8.77l-.69.05-.59.14-.5.22-.41.27-.33.32-.27.35-.2.36-.15.37-.1.35-.07.32-.04.27-.02.21v3.06H3.17l-.21-.03-.28-.07-.32-.12-.35-.18-.36-.26-.36-.36-.35-.46-.32-.59-.28-.73-.21-.88-.14-1.05-.05-1.23.06-1.22.16-1.04.24-.87.32-.71.36-.57.4-.44.42-.33.42-.24.4-.16.36-.1.32-.05.24-.01h.16l.06.01h8.16v-.83H6.18l-.01-2.75-.02-.37.05-.34.11-.31.17-.28.25-.26.31-.23.38-.2.44-.18.51-.15.58-.12.64-.1.71-.06.77-.04.84-.02 1.27.05zm-6.3 1.98l-.23.33-.08.41.08.41.23.34.33.22.41.09.41-.09.33-.22.23-.34.08-.41-.08-.41-.23-.33-.33-.22-.41-.09-.41.09zm13.09 3.95l.28.06.32.12.35.18.36.27.36.35.35.47.32.59.28.73.21.88.14 1.04.05 1.23-.06 1.23-.16 1.04-.24.86-.32.71-.36.57-.4.45-.42.33-.42.24-.4.16-.36.09-.32.05-.24.02-.16-.01h-8.22v.82h5.84l.01 2.76.02.36-.05.34-.11.31-.17.29-.25.25-.31.24-.38.2-.44.17-.51.15-.58.13-.64.09-.71.07-.77.04-.84.01-1.27-.04-1.07-.14-.9-.2-.73-.25-.59-.3-.45-.33-.34-.34-.25-.34-.16-.33-.1-.3-.04-.25-.02-.2.01-.13v-5.34l.05-.64.13-.54.21-.46.26-.38.3-.32.33-.24.35-.2.35-.14.33-.1.3-.06.26-.04.21-.02.13-.01h5.84l.69-.05.59-.14.5-.21.41-.28.33-.32.27-.35.2-.36.15-.36.1-.35.07-.32.04-.28.02-.21V6.07h2.09l.14.01zm-6.47 14.25l-.23.33-.08.41.08.41.23.33.33.23.41.08.41-.08.33-.23.23-.33.08-.41-.08-.41-.23-.33-.33-.23-.41-.08-.41.08z" fill="#f4f4f5"/></svg></g><text x="90" y="691" fill="#71717a">▸ </text><text x="109.2" y="691" fill="#f4f4f5">english-capture</text><text x="90" y="715" fill="#a1a1aa">Global text capture for learning English: select an area, OCR with Tesseract, SQLite storage</text><text x="90" y="739" fill="#52525b">→ https://github.com/AndresBlancoSierra/english-capture</text></g><g><g transform="translate(60, 761)"><svg xmlns="http://www.w3.org/2000/svg" width="22" height="22" viewBox="0 0 24 24"><path d="M22.394 6c-.167-.29-.398-.543-.652-.69L12.926.22c-.509-.294-1.34-.294-1.848 0L2.26 5.31c-.508.293-.923 1.013-.923 1.6v10.18c0 .294.104.62.271.91.167.29.398.543.652.69l8.816 5.09c.508.293 1.34.293 1.848 0l8.816-5.09c.254-.147.485-.4.652-.69.167-.29.27-.616.27-.91V6.91c.003-.294-.1-.62-.268-.91zM12 19.11c-3.92 0-7.109-3.19-7.109-7.11 0-3.92 3.19-7.11 7.11-7.11a7.133 7.133 0 016.156 3.553l-3.076 1.78a3.567 3.567 0 00-3.08-1.78A3.56 3.56 0 008.444 12 3.56 3.56 0 0012 15.555a3.57 3.57 0 003.08-1.778l3.078 1.78A7.135 7.135 0 0112 19.11zm7.11-6.715h-.79v.79h-.79v-.79h-.79v-.79h.79v-.79h.79v.79h.79zm2.962 0h-.79v.79h-.79v-.79h-.79v-.79h.79v-.79h.79v.79h.79z" fill="#f4f4f5"/></svg></g><text x="90" y="777" fill="#71717a">▸ </text><text x="109.2" y="777" fill="#f4f4f5">guitar-hero-controller</text><text x="90" y="801" fill="#a1a1aa">Physical Guitar Hero controller: Arduino firmware (5 frets + joystick) and C++ uinput driver for</text><text x="90" y="825" fill="#a1a1aa">Linux</text><text x="90" y="849" fill="#52525b">→ https://github.com/AndresBlancoSierra/guitar-hero-controller</text></g><g><g transform="translate(60, 871)"><svg xmlns="http://www.w3.org/2000/svg" width="22" height="22" viewBox="0 0 24 24"><path d="M14.25.18l.9.2.73.26.59.3.45.32.34.34.25.34.16.33.1.3.04.26.02.2-.01.13V8.5l-.05.63-.13.55-.21.46-.26.38-.3.31-.33.25-.35.19-.35.14-.33.1-.3.07-.26.04-.21.02H8.77l-.69.05-.59.14-.5.22-.41.27-.33.32-.27.35-.2.36-.15.37-.1.35-.07.32-.04.27-.02.21v3.06H3.17l-.21-.03-.28-.07-.32-.12-.35-.18-.36-.26-.36-.36-.35-.46-.32-.59-.28-.73-.21-.88-.14-1.05-.05-1.23.06-1.22.16-1.04.24-.87.32-.71.36-.57.4-.44.42-.33.42-.24.4-.16.36-.1.32-.05.24-.01h.16l.06.01h8.16v-.83H6.18l-.01-2.75-.02-.37.05-.34.11-.31.17-.28.25-.26.31-.23.38-.2.44-.18.51-.15.58-.12.64-.1.71-.06.77-.04.84-.02 1.27.05zm-6.3 1.98l-.23.33-.08.41.08.41.23.34.33.22.41.09.41-.09.33-.22.23-.34.08-.41-.08-.41-.23-.33-.33-.22-.41-.09-.41.09zm13.09 3.95l.28.06.32.12.35.18.36.27.36.35.35.47.32.59.28.73.21.88.14 1.04.05 1.23-.06 1.23-.16 1.04-.24.86-.32.71-.36.57-.4.45-.42.33-.42.24-.4.16-.36.09-.32.05-.24.02-.16-.01h-8.22v.82h5.84l.01 2.76.02.36-.05.34-.11.31-.17.29-.25.25-.31.24-.38.2-.44.17-.51.15-.58.13-.64.09-.71.07-.77.04-.84.01-1.27-.04-1.07-.14-.9-.2-.73-.25-.59-.3-.45-.33-.34-.34-.25-.34-.16-.33-.1-.3-.04-.25-.02-.2.01-.13v-5.34l.05-.64.13-.54.21-.46.26-.38.3-.32.33-.24.35-.2.35-.14.33-.1.3-.06.26-.04.21-.02.13-.01h5.84l.69-.05.59-.14.5-.21.41-.28.33-.32.27-.35.2-.36.15-.36.1-.35.07-.32.04-.28.02-.21V6.07h2.09l.14.01zm-6.47 14.25l-.23.33-.08.41.08.41.23.33.33.23.41.08.41-.08.33-.23.23-.33.08-.41-.08-.41-.23-.33-.33-.23-.41-.08-.41.08z" fill="#f4f4f5"/></svg></g><text x="90" y="887" fill="#71717a">▸ </text><text x="109.2" y="887" fill="#f4f4f5">opencode-telegram-controller</text><text x="90" y="911" fill="#a1a1aa">Telegram bot to remotely control OpenCode tasks with single-user auth, task queue and summaries</text><text x="90" y="935" fill="#52525b">→ https://github.com/AndresBlancoSierra/opencode-telegram-controller</text></g><g><g transform="translate(60, 957)"><svg xmlns="http://www.w3.org/2000/svg" width="22" height="22" viewBox="0 0 24 24"><path d="M14.25.18l.9.2.73.26.59.3.45.32.34.34.25.34.16.33.1.3.04.26.02.2-.01.13V8.5l-.05.63-.13.55-.21.46-.26.38-.3.31-.33.25-.35.19-.35.14-.33.1-.3.07-.26.04-.21.02H8.77l-.69.05-.59.14-.5.22-.41.27-.33.32-.27.35-.2.36-.15.37-.1.35-.07.32-.04.27-.02.21v3.06H3.17l-.21-.03-.28-.07-.32-.12-.35-.18-.36-.26-.36-.36-.35-.46-.32-.59-.28-.73-.21-.88-.14-1.05-.05-1.23.06-1.22.16-1.04.24-.87.32-.71.36-.57.4-.44.42-.33.42-.24.4-.16.36-.1.32-.05.24-.01h.16l.06.01h8.16v-.83H6.18l-.01-2.75-.02-.37.05-.34.11-.31.17-.28.25-.26.31-.23.38-.2.44-.18.51-.15.58-.12.64-.1.71-.06.77-.04.84-.02 1.27.05zm-6.3 1.98l-.23.33-.08.41.08.41.23.34.33.22.41.09.41-.09.33-.22.23-.34.08-.41-.08-.41-.23-.33-.33-.22-.41-.09-.41.09zm13.09 3.95l.28.06.32.12.35.18.36.27.36.35.35.47.32.59.28.73.21.88.14 1.04.05 1.23-.06 1.23-.16 1.04-.24.86-.32.71-.36.57-.4.45-.42.33-.42.24-.4.16-.36.09-.32.05-.24.02-.16-.01h-8.22v.82h5.84l.01 2.76.02.36-.05.34-.11.31-.17.29-.25.25-.31.24-.38.2-.44.17-.51.15-.58.13-.64.09-.71.07-.77.04-.84.01-1.27-.04-1.07-.14-.9-.2-.73-.25-.59-.3-.45-.33-.34-.34-.25-.34-.16-.33-.1-.3-.04-.25-.02-.2.01-.13v-5.34l.05-.64.13-.54.21-.46.26-.38.3-.32.33-.24.35-.2.35-.14.33-.1.3-.06.26-.04.21-.02.13-.01h5.84l.69-.05.59-.14.5-.21.41-.28.33-.32.27-.35.2-.36.15-.36.1-.35.07-.32.04-.28.02-.21V6.07h2.09l.14.01zm-6.47 14.25l-.23.33-.08.41.08.41.23.33.33.23.41.08.41-.08.33-.23.23-.33.08-.41-.08-.41-.23-.33-.33-.23-.41-.08-.41.08z" fill="#f4f4f5"/></svg></g><text x="90" y="973" fill="#71717a">▸ </text><text x="109.2" y="973" fill="#f4f4f5">portrait-dataset-builder</text><text x="90" y="997" fill="#a1a1aa">CLI to build curated portrait datasets: ingestion, face detection, deduplication and CLIP</text><text x="90" y="1021" fill="#a1a1aa">classification</text><text x="90" y="1045" fill="#52525b">→ https://github.com/AndresBlancoSierra/portrait-dataset-builder</text></g><g><g transform="translate(60, 1067)"><svg xmlns="http://www.w3.org/2000/svg" width="22" height="22" viewBox="0 0 24 24"><path d="M14.25.18l.9.2.73.26.59.3.45.32.34.34.25.34.16.33.1.3.04.26.02.2-.01.13V8.5l-.05.63-.13.55-.21.46-.26.38-.3.31-.33.25-.35.19-.35.14-.33.1-.3.07-.26.04-.21.02H8.77l-.69.05-.59.14-.5.22-.41.27-.33.32-.27.35-.2.36-.15.37-.1.35-.07.32-.04.27-.02.21v3.06H3.17l-.21-.03-.28-.07-.32-.12-.35-.18-.36-.26-.36-.36-.35-.46-.32-.59-.28-.73-.21-.88-.14-1.05-.05-1.23.06-1.22.16-1.04.24-.87.32-.71.36-.57.4-.44.42-.33.42-.24.4-.16.36-.1.32-.05.24-.01h.16l.06.01h8.16v-.83H6.18l-.01-2.75-.02-.37.05-.34.11-.31.17-.28.25-.26.31-.23.38-.2.44-.18.51-.15.58-.12.64-.1.71-.06.77-.04.84-.02 1.27.05zm-6.3 1.98l-.23.33-.08.41.08.41.23.34.33.22.41.09.41-.09.33-.22.23-.34.08-.41-.08-.41-.23-.33-.33-.22-.41-.09-.41.09zm13.09 3.95l.28.06.32.12.35.18.36.27.36.35.35.47.32.59.28.73.21.88.14 1.04.05 1.23-.06 1.23-.16 1.04-.24.86-.32.71-.36.57-.4.45-.42.33-.42.24-.4.16-.36.09-.32.05-.24.02-.16-.01h-8.22v.82h5.84l.01 2.76.02.36-.05.34-.11.31-.17.29-.25.25-.31.24-.38.2-.44.17-.51.15-.58.13-.64.09-.71.07-.77.04-.84.01-1.27-.04-1.07-.14-.9-.2-.73-.25-.59-.3-.45-.33-.34-.34-.25-.34-.16-.33-.1-.3-.04-.25-.02-.2.01-.13v-5.34l.05-.64.13-.54.21-.46.26-.38.3-.32.33-.24.35-.2.35-.14.33-.1.3-.06.26-.04.21-.02.13-.01h5.84l.69-.05.59-.14.5-.21.41-.28.33-.32.27-.35.2-.36.15-.36.1-.35.07-.32.04-.28.02-.21V6.07h2.09l.14.01zm-6.47 14.25l-.23.33-.08.41.08.41.23.33.33.23.41.08.41-.08.33-.23.23-.33.08-.41-.08-.41-.23-.33-.33-.23-.41-.08-.41.08z" fill="#f4f4f5"/></svg></g><text x="90" y="1083" fill="#71717a">▸ </text><text x="109.2" y="1083" fill="#f4f4f5">what</text><text x="90" y="1107" fill="#a1a1aa">Learn languages with songs: search, download and transcribe with Whisper, Genius lyrics, React</text><text x="90" y="1131" fill="#a1a1aa">frontend</text><text x="90" y="1155" fill="#52525b">→ https://github.com/AndresBlancoSierra/what</text></g>
</g>

<g id="streak">
<text x="40" y="1257" fill="#f4f4f5" font-weight="bold">andres@arch</text><text x="145.6" y="1257" fill="#a1a1aa" font-weight="bold">:~$ </text><text x="184.0" y="1257" fill="#71717a" font-weight="bold"># streak</text><text x="60" y="1281" fill="#71717a">TOTAL</text><text x="136.8" y="1281" fill="#f4f4f5">165 contributions</text><text x="60" y="1305" fill="#71717a">CURRENT</text><text x="156.0" y="1305" fill="#f4f4f5">▸ 3 days</text><text x="60" y="1329" fill="#71717a">LONGEST</text><text x="156.0" y="1329" fill="#f4f4f5">▸ 3 days</text>
</g>

<g id="contact">
<text x="470" y="1257" fill="#f4f4f5" font-weight="bold">andres@arch</text><text x="575.6" y="1257" fill="#a1a1aa" font-weight="bold">:~$ </text><text x="614.0" y="1257" fill="#71717a" font-weight="bold"># contact</text><text x="490" y="1281" fill="#71717a">EMAIL</text><text x="566.8" y="1281" fill="#f4f4f5">andresfelipeblancos15@gmail.com</text><text x="490" y="1305" fill="#71717a">LOCATION</text><text x="595.6" y="1305" fill="#f4f4f5">Bogotá, Colombia · open to remote</text><text x="490" y="1329" fill="#71717a">VISITORS</text><text x="595.6" y="1329" fill="#f4f4f5">57</text><text x="490" y="1353" fill="#71717a">STATUS</text><text x="576.4" y="1353" fill="#f4f4f5">open to remote worldwide</text>
</g>

<g id="comets"><g class="comet comet-1"><line x1="0" y1="0" x2="0" y2="70" stroke="url(#comet-trail)" stroke-width="1.5"/><circle cx="0" cy="0" r="2" fill="#f4f4f5"/></g><g class="comet comet-2"><line x1="0" y1="0" x2="0" y2="60" stroke="url(#comet-trail)" stroke-width="1.2"/><circle cx="0" cy="0" r="1.8" fill="#f4f4f5"/></g><g class="comet comet-3"><line x1="0" y1="0" x2="0" y2="50" stroke="url(#comet-trail)" stroke-width="1.0"/><circle cx="0" cy="0" r="1.5" fill="#f4f4f5"/></g></g>
</svg>
